<?xml version="1.0" standalone="no"?><!DOCTYPE svg PUBLIC "-//W3C//DTD SVG 1.1//EN" "http://www.w3.org/Graphics/SVG/1.1/DTD/svg11.dtd"><svg t="1548224510475" class="icon" style="" viewBox="0 0 4406 1024" version="1.1" xmlns="http://www.w3.org/2000/svg" p-id="3866" xmlns:xlink="http://www.w3.org/1999/xlink" width="550.75" height="128"><defs><style type="text/css"></style></defs><path d="M36.648421 873.094737c47.427368-64.673684 479.663158-657.515789 629.490526-851.536842L679.073684 21.557895c119.646316 228.513684 385.886316 764.227368 429.002105 836.446316L836.446316 1005.675789l-86.231579-196.176842-383.730526 21.557895c-12.934737 17.246316-72.218947 116.412632-107.789474 175.696842L36.648421 873.094737 36.648421 873.094737zM688.774737 632.724211c-25.869474-72.218947-61.44-161.684211-76.530526-213.423158-38.804211 60.362105-95.932632 154.138947-139.048421 225.28L688.774737 632.724211 688.774737 632.724211zM688.774737 632.724211" p-id="3867" fill="#d4237a"></path><path d="M1725.709474 975.494737c-40.96 5.389474-82.997895 8.623158-137.970526 8.623158-377.263158 0-496.909474-174.618947-476.429474-323.368421 24.791579-177.852632 234.981053-403.132632 641.347368-474.273684l20.48 212.345263c-240.370526 38.804211-350.315789 133.658947-364.328421 233.903158-11.856842 82.997895 67.907368 143.36 220.968421 143.36 46.349474 0 84.075789-2.155789 112.101053-5.389474L1725.709474 975.494737 1725.709474 975.494737zM1725.709474 975.494737" p-id="3868" fill="#d4237a"></path><path d="M1845.355789 965.793684c14.012632-66.829474 51.738947-337.381053 56.050526-367.562105l23.713684-168.151579c3.233684-20.48 43.115789-325.524211 45.271579-362.172632 103.477895 0 423.612632-14.012632 556.193684-19.402105l-23.713684 209.111579-279.174737 6.467368-26.947368 195.098947c28.025263 0 113.178947-7.545263 255.461053-11.856842l-23.713684 199.410526-257.616842-2.155789-15.090526 107.789474c-3.233684 20.48-25.869474 196.176842-28.025263 213.423158L1845.355789 965.793684 1845.355789 965.793684zM1845.355789 965.793684" p-id="3869" fill="#d4237a"></path><path d="M2834.863158 467.806316c-23.713684 172.463158-26.947368 245.76 10.778947 293.187368 20.48 24.791579 48.505263 35.570526 84.075789 35.570526 40.96 0 74.374737-16.168421 100.244211-46.349474 37.726316-44.193684 44.193684-85.153684 78.686316-328.757895l5.389474-40.96c10.778947-74.374737 16.168421-148.749474 19.402105-188.631579l278.096842 0c-3.233684 23.713684-12.934737 104.555789-24.791579 189.709474l-7.545263 50.661053c-29.103158 205.877895-60.362105 330.913684-159.528421 430.08-80.842105 79.764211-203.722105 121.802105-331.991579 121.802105-93.776842 0-238.214737-14.012632-307.2-135.814737-45.271579-78.686316-54.972632-158.450526-18.324211-418.223158l8.623158-58.206316c6.467368-49.583158 20.48-139.048421 23.713684-162.762105L2877.978947 209.111579c-7.545263 28.025263-18.324211 88.387368-32.336842 187.553684L2834.863158 467.806316 2834.863158 467.806316zM2834.863158 467.806316" p-id="3870" fill="#d4237a"></path><path d="M3399.68 965.793684c18.324211-75.452632 122.88-627.334737 154.138947-770.694737l21.557895-6.467368c147.671579 104.555789 465.650526 351.393684 486.130526 377.263158 8.623158-58.206316 42.037895-322.290526 50.661053-369.717895l246.837895 5.389474c-36.648421 155.216842-129.347368 626.256842-156.294737 780.395789l-20.48 5.389474c-106.711579-70.063158-441.936842-340.614737-483.974737-378.341053-7.545263 56.050526-46.349474 333.069474-49.583158 364.328421L3399.68 965.793684 3399.68 965.793684zM3399.68 965.793684" p-id="3871" fill="#d4237a"></path></svg>