<?xml version="1.0" standalone="no"?><!DOCTYPE svg PUBLIC "-//W3C//DTD SVG 1.1//EN" "http://www.w3.org/Graphics/SVG/1.1/DTD/svg11.dtd"><svg t="1548224482869" class="icon" style="" viewBox="0 0 2241 1024" version="1.1" xmlns="http://www.w3.org/2000/svg" p-id="3459" xmlns:xlink="http://www.w3.org/1999/xlink" width="280.125" height="128"><defs><style type="text/css"></style></defs><path d="M753.306 673.491c-23.339-17.693-49.69-30.115-76.793-41.032-55.336-21.833-113.307-29.737-172.408-28.233-13.928 0-27.856 1.13-42.16 1.882 0-1.13-1.13-2.636-1.13-4.518-3.764-42.16-8.282-84.322-11.292-125.728-2.636-34.631-3.764-69.264-4.518-103.897-1.13-66.629-1.13-132.882-1.13-199.511 0-15.811-1.13-13.928-13.176-8.657-37.267 15.058-74.158 29.738-111.425 44.043-1.13 1.13-3.011 4.894-2.258 6.775 11.292 42.16 19.574 85.45 25.221 128.364 5.647 37.267 10.54 73.404 15.811 109.919 4.518 31.998 7.529 63.993 11.292 96.367 3.764 32.75 8.282 65.499 12.045 98.626 3.763 31.621 7.529 62.112 11.292 93.732 2.636 22.587 4.894 44.797 6.775 67.382 1.13 17.692 2.636 35.385 3.011 52.324 0 3.763 1.13 5.647 4.894 5.647 8.282 0 15.811 1.13 23.715 0 38.396-3.763 76.793-6.4 114.436-12.045 28.985-4.518 57.218-11.292 85.074-20.705 39.526-13.176 73.404-35.762 106.155-61.735 13.928-10.54 25.221-23.339 30.115-39.526 10.539-26.727 6.023-44.796-13.552-59.477v0zM536.479 798.843c-5.647-42.16-11.292-83.192-16.939-123.847 21.833 4.894 113.684 41.407 118.201 47.055-33.503 25.221-66.629 50.818-101.26 76.793v0zM974.649 693.819c-1.882-21.833-3.763-44.796-6.4-66.629-2.636-30.115-5.647-60.23-8.282-90.722-2.636-27.856-3.764-55.336-5.647-83.192-2.636-38.396-5.647-76.793-8.282-115.19l-5.647-85.074c-0.753-10.54-4.894-13.176-15.811-12.423-13.176 1.13-25.974 1.882-39.149 2.636-11.292 1.13-22.587 2.636-33.503 3.763 33.879 179.937 48.938 360.248 66.629 539.055 20.705 1.882 39.526 3.011 59.099 4.894 3.763 0.753 5.647 0 5.647-3.763l-1.882-20.705c-1.506-24.845-4.142-48.937-6.775-72.652v0zM871.506 716.405c-2.636-22.587-4.894-44.797-7.529-67.382-2.636-25.598-4.894-51.571-8.282-77.168-1.882-15.811-4.518-30.868-6.775-45.925-0.753-5.647-4.518-8.282-10.539-7.529-10.54 1.13-21.833 1.13-32.75 2.636-15.058 1.882-30.115 4.517-45.924 6.4 18.822 98.25 37.643 194.24 57.218 291.737 22.587-3.011 44.043-5.647 65.875-8.282-0.753-7.529-1.882-15.058-2.636-21.833-3.011-24.845-6.023-48.937-8.658-72.652v0zM1096.614 816.913c-0.753-37.268-1.883-73.404-2.636-110.672-0.753-45.924 0-92.603 0-138.528 0-10.164-0.753-19.574-1.13-29.737 0-4.517-2.636-8.282-7.529-8.282-19.574-0.753-39.526-1.13-59.099-1.13-7.529 0-14.305 1.13-21.833 2.636 0.753 2.636 0.753 4.517 0.753 6.4 2.636 31.62 5.647 62.866 8.282 93.732 2.636 30.115 5.647 60.982 8.282 91.097 3.011 32.75 5.647 65.5 8.658 98.25 0 1.882 3.011 4.894 4.894 4.894 19.951 0.753 41.032 0 62.112 0-0.753-4.142-0.753-6.775-0.753-8.658v0zM842.521 482.262c-3.764-35.762-6.775-69.641-10.164-104.272-0.753-4.518-2.636-6.775-6.4-6.775-12.045 0-24.468 0-37.267 0.753 4.894 38.396 9.412 75.287 14.305 113.307 13.928-1.13 26.35-1.506 39.526-3.011v0zM1090.969 487.907v-95.614c0-6.775-2.636-8.657-8.282-8.657h-32.75v109.92c14.304 0.753 27.856 1.13 41.032 1.882v-7.529zM787.185 486.779v-7.529c-1.883-19.574-4.518-38.396-6.4-57.972-1.13-12.423-2.636-24.468-3.764-37.268-0.753-3.011 0.753-7.529-4.518-6.775-12.045 1.13-23.715 3.764-35.762 4.894 6.775 37.268 13.176 73.404 19.951 109.92l30.492-5.27zM1036.384 493.178v-57.218c0-15.058-0.753-30.868 0-45.924 0-5.647-1.882-6.775-6.775-6.775h-33.503c3.011 39.149 5.647 76.041 8.658 112.553 10.164-0.753 20.328-1.506 31.62-2.636v0zM1036.384 493.178z" p-id="3460" fill="#1296db"></path><path d="M1551.348 673.491c-23.339-17.693-49.689-30.115-76.793-41.032-55.336-21.833-113.307-29.737-172.408-28.233-13.928 0-27.856 1.13-42.16 1.882 0-1.13-1.13-2.636-1.13-4.518-3.764-42.16-8.282-84.322-11.292-125.728-2.636-34.631-3.764-69.264-4.517-103.897-1.13-66.629-1.13-132.882-1.13-199.511 0-15.811-1.13-13.928-13.176-8.657-37.267 15.058-74.158 29.738-111.425 44.043-1.13 0.753-3.011 4.518-2.636 6.4 11.292 42.16 19.574 85.45 25.221 128.364 5.647 37.268 10.54 73.404 15.811 109.919 4.517 31.998 7.529 63.993 11.292 96.367 3.763 32.75 8.282 65.5 12.045 98.626 3.764 31.621 7.529 62.112 11.292 93.732 2.636 22.587 4.894 44.797 6.775 67.382 1.13 17.693 2.636 35.385 3.011 52.324 0 3.763 1.13 5.647 4.894 5.647 8.282 0 15.811 1.13 23.715 0 38.396-3.763 76.793-6.4 114.436-12.045 28.986-4.518 57.218-11.292 85.074-20.705 39.526-13.176 73.404-35.762 106.155-61.735 13.928-10.54 25.221-23.339 30.114-39.526 10.917-26.35 6.4-44.42-13.176-59.1v0zM1334.523 798.843c-5.647-42.16-11.292-83.192-16.939-123.847 21.833 4.894 113.684 41.407 118.201 47.055-33.503 25.221-66.629 50.818-101.26 76.793v0zM1772.692 693.819c-1.883-21.833-3.764-44.796-6.4-66.629-2.636-30.115-5.647-60.23-8.282-90.722-2.636-27.856-3.764-55.336-5.647-83.192-2.636-38.396-5.647-76.793-8.282-115.19l-5.647-85.074c-0.753-10.54-4.894-13.176-15.811-12.423-13.176 1.13-25.974 1.882-39.149 2.636-11.292 1.13-22.587 2.636-33.503 3.763 33.879 179.937 48.938 360.248 66.629 539.055 20.705 1.882 39.526 3.011 59.099 4.894 3.764 0.753 5.647 0 5.647-3.763l-1.883-20.705c-1.506-24.845-4.142-48.937-6.775-72.652v0zM1669.549 716.405c-2.636-22.587-4.894-44.797-7.529-67.382-2.636-25.598-4.894-51.571-8.282-77.168-1.882-15.811-4.517-30.868-6.775-45.925-0.753-5.647-4.518-8.282-10.54-7.529-10.539 1.13-21.832 1.13-32.75 2.636-15.057 1.882-30.114 4.517-45.925 6.4 18.822 98.25 37.643 194.24 57.218 291.737 22.587-3.011 44.043-5.647 65.875-8.282-0.753-7.529-1.882-15.058-2.636-21.833-3.011-24.845-6.023-48.937-8.658-72.652v0zM1894.656 816.913c-0.753-37.268-1.882-73.404-2.636-110.672-0.753-45.924 0-92.603 0-138.528 0-10.164-0.753-19.574-1.13-29.737 0-4.517-2.636-8.282-7.529-8.282-19.574-0.753-39.526-1.13-59.099-1.13-7.529 0-14.304 1.13-21.832 2.636 0.753 2.636 0.753 4.517 0.753 6.4 2.636 31.62 5.647 62.866 8.282 93.732 2.636 30.115 5.647 60.982 8.282 91.097 3.011 32.75 5.647 65.5 8.657 98.25 0 1.882 3.011 4.894 4.894 4.894 19.951 0.753 41.032 0 62.112 0-0.753-4.142-0.753-6.775-0.753-8.658v0zM1640.563 482.262c-3.764-35.762-6.775-69.641-10.164-104.272-0.753-4.518-2.636-6.775-6.4-6.775-12.045 0-24.468 0-37.267 0.753 4.894 38.396 9.412 75.287 14.304 113.307 13.928-1.13 26.35-1.506 39.526-3.011v0zM1889.011 487.907v-95.614c0-6.775-2.636-8.657-8.282-8.657h-32.75v109.92c14.305 0.753 27.856 1.13 41.032 1.882v-7.529zM1585.227 486.779v-7.529c-1.883-19.574-4.517-38.396-6.4-57.972-1.13-12.423-2.636-24.468-3.764-37.268-0.753-3.011 0.753-7.529-4.518-6.775-12.045 1.13-23.715 3.764-35.762 4.894 6.775 37.268 13.176 73.404 19.951 109.92l30.492-5.27zM1834.428 493.178v-57.218c0-15.058-0.753-30.868 0-45.924 0-5.647-1.882-6.775-6.775-6.775h-33.503c3.011 39.149 5.647 76.041 8.658 112.553 10.164-0.753 20.327-1.506 31.62-2.636v0zM1834.428 493.178z" p-id="3461" fill="#1296db"></path></svg>