<?xml version="1.0" standalone="no"?><!DOCTYPE svg PUBLIC "-//W3C//DTD SVG 1.1//EN" "http://www.w3.org/Graphics/SVG/1.1/DTD/svg11.dtd"><svg t="1548215890503" class="icon" style="" viewBox="0 0 1024 1024" version="1.1" xmlns="http://www.w3.org/2000/svg" p-id="4467" xmlns:xlink="http://www.w3.org/1999/xlink" width="128" height="128"><defs><style type="text/css"></style></defs><path d="M945.76 368.032l-448-298.656c-10.752-7.168-24.768-7.168-35.488 0l-448 298.656c-8.896 5.92-14.24 15.936-14.24 26.624l0 298.656c0 10.688 5.344 20.704 14.24 26.624l448 298.656c5.376 3.584 11.552 5.376 17.76 5.376s12.384-1.792 17.76-5.376l448-298.656c8.896-5.92 14.24-15.936 14.24-26.624l0-298.656c0-10.688-5.344-20.704-14.24-26.624zM480 654.88l-166.304-110.88 166.304-110.88 166.304 110.88-166.304 110.88zM512 377.536l0-221.76 358.304 238.88-166.304 110.88-192-128zM448 377.536l-192 128-166.304-110.88 358.304-238.88 0 221.76zM198.304 544l-134.304 89.536 0-179.072 134.304 89.536zM256 582.464l192 128 0 221.76-358.304-238.88 166.304-110.88zM512 710.464l192-128 166.304 110.88-358.304 238.88 0-221.76zM761.696 544l134.304-89.536 0 179.072-134.304-89.536z" p-id="4468" fill="#1296db"></path></svg>