<?xml version="1.0" standalone="no"?><!DOCTYPE svg PUBLIC "-//W3C//DTD SVG 1.1//EN" "http://www.w3.org/Graphics/SVG/1.1/DTD/svg11.dtd"><svg t="1548224421427" class="icon" style="" viewBox="0 0 1024 1024" version="1.1" xmlns="http://www.w3.org/2000/svg" p-id="1418" xmlns:xlink="http://www.w3.org/1999/xlink" width="128" height="128"><defs><style type="text/css"></style></defs><path d="M168.15 105.12c9.6-10.95 24.4-17.04 38.92-16.02 13.91 0.8 27.26 8.12 35.48 19.34 5.89 7.91 9.22 17.67 9.41 27.53 0.08 8.55-0.07 17.11 0.08 25.66 30.11-24.03 59.95-48.41 89.93-72.62 0.02 2.59 0.02 5.19 0 7.78-30.01 24.1-59.77 48.52-89.89 72.49-0.21 13.24-0.09 26.48-0.08 39.72 29.99 0.05 59.98-0.01 89.97 0.03 0.03 1.98 0.04 3.96 0.02 5.94-62 0.03-123.99-0.01-185.99 0.02 0.03-26 0.01-52 0.01-78 0.01-11.64 4.36-23.2 12.14-31.87m5.61 2.66c-7.52 7.72-11.87 18.42-11.77 29.21-0.01 24-0.03 48 0.01 72 28 0.06 56 0 84 0.04 0.06-24.01-0.02-48.03 0.02-72.04 0.09-11.98-5.3-23.85-14.38-31.67-7.79-6.91-18.27-10.69-28.68-10.35-10.93 0.15-21.64 4.94-29.2 12.81zM402.01 89c41.33-0.01 82.66 0.01 123.98 0.01 0 233.33-0.01 466.66 0.01 699.99 113.99 0.01 227.98-0.03 341.98 0.02 0.04 41.32 0 82.64 0.01 123.96-155.33 0.03-310.66 0-465.99 0.02 0.01-274.67-0.01-549.33 0.01-824zM156.02 225.01c1.99-0.03 3.98-0.03 5.97 0 0.01 36.66-0.03 73.33 0.01 109.99 28.01 0.01 56.01 0.02 84.02-0.01-0.03-33.99 0-67.99 0-101.98 1.99-0.01 3.97-0.01 5.95 0.01 0.04 33.99 0.02 67.99 0.03 101.98 28-0.01 56 0 84 0 0.01-36.66-0.03-73.31 0.04-109.97 1.98-0.02 3.95-0.03 5.93-0.01 0.05 38.65 0.01 77.31 0.03 115.96-62 0.04-123.99 0.01-185.99 0.01 0-38.66 0-77.32 0.01-115.98zM155.99 351c9.33 0.02 18.66-0.02 27.98 0.02 0.06 17.99 0.02 35.98 0.03 53.98 52.66 0.04 105.33-0.02 157.99 0 0.02 9.33 0.02 18.66-0.01 27.99-52.66 0.02-105.32-0.01-157.98 0.01-0.02 18 0 36 0 54-9.27-0.01-18.53-0.02-27.8-0.01-0.47-45.33-0.06-90.66-0.21-135.99zM156 497.02c9.33-0.02 18.66-0.01 27.99-0.02 0.02 29.34-0.03 58.68 0.01 88.01h46.01c0.04-26.67 0.02-53.33 0-80 9.32 0.01 18.64-0.03 27.97 0.01 0.05 26.66-0.02 53.32 0.01 79.99 28 0.03 55.99 0 83.99-0.01 0.06 9.32-0.07 18.64 0.02 27.96-62 0.03-123.99 0.03-185.99 0.02 0.01-38.66 0-77.31-0.01-115.96zM238.44 625.63c18.9-2.2 38.47 1.6 55.15 10.77 13.59 7.44 25.25 18.35 33.65 31.35 11.82 18.29 16.9 40.85 13.91 62.42-2.02 15.89-8.36 31.19-18.06 43.93-12.55 16.64-30.86 28.87-51.09 33.95-15.51 4.01-32.02 3.87-47.46-0.38-20.11-5.39-38.19-17.9-50.47-34.71-9.09-12.26-15.02-26.84-17.11-41.96-3.06-20.84 1.38-42.69 12.25-60.73 14.53-24.51 40.84-41.67 69.23-44.64m3.88 27.64c-24.85 2.27-47.28 20.26-54.97 43.98-5.6 16.43-4.2 35.11 3.86 50.49 8.67 17.19 25.48 29.98 44.34 33.84 14.48 3.12 30.05 1.08 43.18-5.8 14.91-7.56 26.64-21.17 31.9-37.03 4.34-12.89 4.54-27.11 0.48-40.09-5.14-16.71-17.35-31.11-33.04-38.85-10.95-5.58-23.54-7.77-35.75-6.54zM314.01 801.01c9.32-0.02 18.65-0.02 27.98 0 0.03 37.33-0.01 74.66 0.01 111.99-62-0.05-124 0.02-186-0.01 0.12-9.29-0.22-18.59 0.21-27.87 52.59-0.25 105.19-0.03 157.79-0.12 0.01-28 0-56 0.01-83.99z" p-id="1419" fill="#1296db"></path></svg>