<?xml version="1.0" standalone="no"?><!DOCTYPE svg PUBLIC "-//W3C//DTD SVG 1.1//EN" "http://www.w3.org/Graphics/SVG/1.1/DTD/svg11.dtd"><svg t="1548224531732" class="icon" style="" viewBox="0 0 1024 1024" version="1.1" xmlns="http://www.w3.org/2000/svg" p-id="4851" xmlns:xlink="http://www.w3.org/1999/xlink" width="128" height="128"><defs><style type="text/css"></style></defs><path d="M429.00266667 228.912c-64.784-63.13813333-129.56693333-126.2912-193.57546667-188.7008 15.68213333-16.55893333 31.00373333-32.71466667 47.0016-49.60213333A3566347.72266667 3566347.72266667 0 0 0 512.34133333 214.37866667c76.79573333-74.79466667 153.02933333-149.0368 230.08-224.07573334a104444.8032 104444.8032 0 0 0 46.18346667 50.0352c-62.97386667 61.38666667-128.32746667 125.08266667-193.67466667 188.784 0.19413333 0.75733333 0.3872 1.4976 0.57386667 2.25493334H932.49066667c53.78986667 0 91.77066667 37.5584 91.80266666 91.1296 0.05973333 148.63253333 0 297.26506667-0.0544 445.8976-0.00426667 27.2288 0.49066667 54.48106667-0.48213333 81.68533333-1.5296 42.6048-36.56213333 79.28533333-79.48266667 81.38026667-39.16266667 1.90506667-78.464 1.24053333-117.70133333 1.10933333-7.76853333-0.02986667-11.96053333 2.5408-15.9104 8.9536-16.5568 26.90346667-33.61493333 53.5072-50.60586667 80.13866667-11.10933333 17.41226667-29.36853333 17.37066667-40.55786666-0.16853334-17.312-27.1136-34.53333333-54.28266667-51.51893334-81.60426666-3.2768-5.26933333-6.98133333-7.24693333-13.29066666-7.24266667-98.304 0.19733333-196.60373333 0.20906667-294.90346667-0.00426667-6.4-0.02133333-9.9072 2.21546667-13.14773333 7.44533334-16.80746667 27.08266667-33.89653333 53.9968-51.02933334 80.88853333-11.7216 18.41066667-29.75786667 18.2272-41.49546666-0.29546667-16.928-26.67626667-34.00533333-53.25013333-50.55786667-80.1536-3.69813333-6.016-7.872-7.9168-14.7296-7.888-34.2976 0.10026667-68.72853333 1.4656-102.87786667-0.94933333-51.79626667-3.64693333-84.13866667-40.4512-84.19733333-92.50453333-0.09386667-88.95893333-0.02346667-177.90293333-0.02346667-266.8544 0-82.85546667-0.0704-165.72906667 0.02346667-248.58453334 0.05333333-47.90293333 28.58453333-82.5248 75.248-91.4176 4.80533333-0.9216 9.8304-0.9216 14.75626667-0.92693333 108.76906667-0.05653333 217.54346667-0.03626667 326.30613333-0.03626667h10.10346667c0.2816-0.82346667 0.56-1.63626667 0.83946666-2.464z m0 0" fill="#f4ea2a" p-id="4852"></path></svg>