<?xml version="1.0" standalone="no"?><!DOCTYPE svg PUBLIC "-//W3C//DTD SVG 1.1//EN" "http://www.w3.org/Graphics/SVG/1.1/DTD/svg11.dtd"><svg t="1548224547695" class="icon" style="" viewBox="0 0 1024 1024" version="1.1" xmlns="http://www.w3.org/2000/svg" p-id="5820" xmlns:xlink="http://www.w3.org/1999/xlink" width="128" height="128"><defs><style type="text/css"></style></defs><path d="M543.488 797.92c-35.456-69.76-77.024-140.256-158.208-140.256-15.456 0-31.008 2.592-45.184 8.928l-27.552-55.008c33.536-28.928 87.808-51.808 157.568-51.808 108.544 0 164.32 52.448 208.544 119.136 26.144-56.96 38.56-133.984 38.56-229.344 0-238.176-74.4-360.416-248.416-360.416-171.424 0-245.632 122.24-245.632 360.416 0 236.928 74.208 357.92 245.632 357.92 27.296 0 52.064-2.944 74.656-9.6z m42.496 83.072a454.208 454.208 0 0 1-117.024 15.616c-228.352 0-451.84-182.144-451.84-447.072C17.152 182.24 240.608 0 468.96 0c232.16 0 453.472 180.832 453.472 449.568 0 149.504-69.76 270.976-171.104 349.472 32.608 48.992 65.824 81.664 113.152 81.664 51.168 0 71.68-39.04 75.52-70.368h66.432c3.936 41.568-17.152 213.632-203.36 213.632-113.152 0-172.672-65.184-217.44-141.984l0.352-1.024z" fill="#B92B27" p-id="5821"></path></svg>