<?xml version="1.0" standalone="no"?><!DOCTYPE svg PUBLIC "-//W3C//DTD SVG 1.1//EN" "http://www.w3.org/Graphics/SVG/1.1/DTD/svg11.dtd"><svg t="1548216254948" class="icon" style="" viewBox="0 0 1024 1024" version="1.1" xmlns="http://www.w3.org/2000/svg" p-id="13642" xmlns:xlink="http://www.w3.org/1999/xlink" width="128" height="128"><defs><style type="text/css"></style></defs><path d="M777.102 162.02s-59.848 79.189-72.704 125.154c-12.857 45.966-60.985 56.662-85.56 81.238-24.577 24.576-257.821 53.475-326.201 428.942 0 0 0 52.45-64.17 67.356-64.172 15.02-136.99 32.541-149.732 16.043-11.833-15.246 81.237-50.29 81.237-50.29s45.966-29.923 45.966-41.757c0-11.72-84.536 21.39-84.536 21.39s-164.75 55.637-107.976 115.598c56.661 59.847 266.354 0 305.949-17.067 39.595-17.066 97.28-25.714 124.131-2.162 26.738 23.552 44.942 34.248 136.875 28.9 91.933-5.348 168.96-5.348 168.96-5.348s35.271-34.247-29.923-50.29l-59.848-4.323s-49.152 1.024-9.671-51.314c39.594-52.452 37.432-86.585 37.432-86.585s24.576-1.024 33.11 39.595c8.533 40.618 21.39 121.97 90.908 128.341 0 0 15.019 49.152 91.933 22.414 0 0 39.595-21.39-9.671-44.942l-18.205-3.186s-77.027-144.384-73.842-187.165c0 0-8.534-34.247 20.366-58.823s105.927-120.832 60.984-294.116c0 0-9.671-21.39 55.637-28.899 65.195-7.51 73.843-41.757 82.376-83.4 0 0-3.186-13.88-18.205-25.713l-13.88-16.157s-19.23-65.195-107.976-58.824l-7.51-9.671-10.695-45.966s-24.576 6.371-25.714 33.11l-17.066-21.39c0 0.114-39.595 19.341-42.781 79.303z" fill="#333333" p-id="13643"></path></svg>