<?xml version="1.0" standalone="no"?><!DOCTYPE svg PUBLIC "-//W3C//DTD SVG 1.1//EN" "http://www.w3.org/Graphics/SVG/1.1/DTD/svg11.dtd"><svg t="1548216039010" class="icon" style="" viewBox="0 0 1024 1024" version="1.1" xmlns="http://www.w3.org/2000/svg" p-id="8416" data-spm-anchor-id="a313x.7781069.0.i28" xmlns:xlink="http://www.w3.org/1999/xlink" width="128" height="128"><defs><style type="text/css"></style></defs><path d="M338.048 349.248" p-id="8417"></path><path d="M521.024 82.112c-244.224 0-442.176 197.952-442.176 442.176s197.952 442.176 442.176 442.176 442.176-197.952 442.176-442.176S765.248 82.112 521.024 82.112zM301.056 622.656l-31.232 0.256-31.36 0.32-34.24-90.688c-18.816-49.92-34.368-91.264-34.624-91.712-0.256-0.576 13.248-1.024 29.824-1.024l30.208 0 4.032 12.992c2.304 7.232 11.392 36.352 20.224 64.704 8.96 28.352 16.384 51.072 16.704 50.496 0.32-0.576 9.408-29.632 20.224-64.704l19.52-63.488 58.624 0-2.304 6.016c-1.28 3.392-16.512 44.608-33.92 91.52L301.056 622.656zM511.744 601.984l-0.32 20.672L358.08 622.656l0.32-4.096c0.704-6.144 4.672-18.24 9.152-27.392 8.384-17.408 24.64-34.112 56.896-58.752 29.248-22.4 37.632-34.368 32.768-47.04-2.688-7.168-11.584-12.992-19.968-13.12-5.12 0-11.968 2.56-15.552 6.016-2.88 2.816-7.296 13.376-7.296 17.792 0 1.536-0.32 3.008-0.832 3.264-1.28 0.832-50.176-3.264-51.072-4.16-1.408-1.408 1.984-16.128 5.696-25.088 7.168-17.152 22.976-28.544 44.48-32.064 14.72-2.432 43.328-1.536 55.488 1.6 18.112 4.736 30.08 14.016 36.928 28.544 7.872 16.576 5.824 38.08-5.12 54.656-7.104 10.944-19.712 22.08-45.504 40.32-5.12 3.712-12.16 9.152-15.68 12.416l-6.4 5.696 39.808 0.128 39.744 0L511.744 601.984zM840.896 623.232l-32.384 0-17.28-28.416c-9.664-15.68-17.792-28.352-18.24-28.096-0.576 0.128-8.576 12.8-18.112 28.096l-17.216 27.84-107.072 0.32-107.072 0.256L523.52 439.744l152.128 0L675.648 459.52l0 19.712L580.48 479.232l0 27.84 43.904 0.256 43.776 0.32 0.384 18.816 0.256 18.944-43.776 0.256-43.904 0.32 0 34.816 48.448 0.32 48.448 0.256 0.32 16.512 0.32 16.384 28.352-42.624c15.552-23.424 28.352-43.2 28.352-44.032 0-0.832-12.544-20.672-27.968-44.096-15.424-23.552-28.096-43.072-28.096-43.328 0-0.256 14.272-0.448 31.68-0.448l31.552 0 15.552 27.264c8.576 14.848 16 26.944 16.384 26.688 0.448-0.32 7.552-12.544 15.68-27.264l14.976-26.688 31.104 0c17.088 0 31.104 0.256 31.104 0.576 0 0.32-12.544 20.224-27.84 44.096-15.296 23.808-27.84 43.648-27.84 44.096 0 0.32 13.504 21.12 29.952 46.208 16.512 25.088 30.4 46.208 30.912 46.912C873.024 622.848 866.432 623.232 840.896 623.232z" p-id="8418" data-spm-anchor-id="a313x.7781069.0.i27" class="selected" fill="#d4237a"></path></svg>