<?xml version="1.0" encoding="utf-8"?>
<!-- Svg Vector Icons : http://www.sfont.cn -->
<!DOCTYPE svg PUBLIC "-//W3C//DTD SVG 1.1//EN" "http://www.w3.org/Graphics/SVG/1.1/DTD/svg11.dtd">
<svg version="1.1" xmlns="http://www.w3.org/2000/svg" xmlns:xlink="http://www.w3.org/1999/xlink" x="0px" y="0px" viewBox="0 0 1000 1000" enable-background="new 0 0 1000 1000" xml:space="preserve">
<metadata> Svg Vector Icons : http://www.sfont.cn </metadata>
<g><path d="M923.3,990.5h-94.6c-35.3,0-64.6-27.5-66.6-62.7C740.9,555.7,444.5,258.8,72.6,237c-35.1-2.1-62.6-31.1-62.6-66V76.3c0-18.5,7.3-35.5,20.7-48c12.2-12.1,28.5-18.7,46-18.7l3.2,0C317.3,21.8,540.7,121.7,709,290.8c168.9,168.4,268.7,392.1,280.9,629.7c1.1,18.1-5.7,36.1-18.7,49.2C958.7,983.1,941.7,990.5,923.3,990.5z M76.7,58.2c-4.6,0-8.8,1.7-11.9,4.8l-0.7,0.7c-3.6,3.4-5.4,7.5-5.4,12.6v94.7c0,9.2,7.4,16.8,16.8,17.4C472.1,211.6,788.1,528.3,810.6,925c0.6,9.5,8.3,16.7,18,16.7h94.6c5.1,0,9.2-1.8,12.5-5.4l0.7-0.7c4.3-4.3,5-9.2,4.8-12.5c-11.6-225.7-106.3-438-266.7-597.9C514.9,164.8,303.1,70,78,58.2H76.7z M584.6,990.5h-89.3c-34.4,0-62.8-26-65.9-60.6c-18.1-190.1-169.1-341.2-359-359.3C36,567.5,10,539.1,10,504.6v-89.4c0-19.3,7.7-36.7,21.7-49c11.6-11.3,28-17.7,45-17.7l5.2,0.1c147,11.7,285.1,75.9,389,180.6c104.5,103.9,168.6,242.2,180.3,389.3l0,0.6c1,18.4-5.2,35.9-17.4,49.3C621.5,982.6,604,990.5,584.6,990.5z M76.7,397.2c-4.4,0-8.7,1.6-11.2,4.1l-1.4,1.3c-4.5,3.8-5.4,9-5.4,12.6v89.4c0,9.3,6.8,16.6,16.2,17.5c213.3,20.3,382.7,189.9,403,403.3c0.9,9.5,8.2,16.4,17.4,16.4h89.3c3.6,0,8.8-0.9,12.6-5.4l0.6-0.7c3.4-3.7,5.1-8.4,4.8-13.7c-10.9-135.4-69.9-262.7-166.2-358.4C340.9,467.3,214,408.3,79,397.2H76.7z M161.3,990.5C77.9,990.5,10,922.5,10,839c0-83.5,67.9-151.5,151.3-151.5c83.4,0,151.3,68,151.3,151.5C312.6,922.5,244.8,990.5,161.3,990.5z M161.3,736.2c-56.6,0-102.7,46.1-102.7,102.8s46,102.8,102.7,102.8c56.6,0,102.7-46.1,102.7-102.8S217.9,736.2,161.3,736.2z"/></g>
</svg>