<?xml version="1.0" standalone="no"?><!DOCTYPE svg PUBLIC "-//W3C//DTD SVG 1.1//EN" "http://www.w3.org/Graphics/SVG/1.1/DTD/svg11.dtd"><svg t="1548216418037" class="icon" style="" viewBox="0 0 1024 1024" version="1.1" xmlns="http://www.w3.org/2000/svg" p-id="2805" xmlns:xlink="http://www.w3.org/1999/xlink" width="128" height="128"><defs><style type="text/css"></style></defs><path d="M241.08491 5.111605c5.111605-5.111605 12.779014-5.111605 17.890619-5.111605 10.223211 2.555803 17.890619 10.223211 23.002225 15.334816 43.448646 35.781238 84.34149 69.006674 127.790137 104.787912 5.111605 2.555803 5.111605 7.667408 2.555802 12.779014-10.223211 12.779014-20.446422 28.11383-28.11383 40.892844-2.555803 2.555803-7.667408 2.555803-10.223211 0-23.002225-15.334816-46.004449-33.225436-69.006673-51.116055v138.013348h69.006673c7.667408 0 17.890619 0 25.558028 5.111605 25.558027 10.223211 46.004449 35.781238 46.004449 63.895069v324.586947c0 10.223211-2.555803 17.890619-5.111606 25.558027-10.223211 25.558027-35.781238 43.448646-61.339265 43.448646h-74.118279v176.350389c23.002225-15.334816 46.004449-33.225436 69.006673-51.116055 2.555803-2.555803 7.667408-2.555803 10.223211 0 7.667408 12.779014 17.890619 25.558027 25.558028 38.337041 2.555803 2.555803 5.111605 5.111605 2.555802 10.223211 0 2.555803-2.555803 5.111605-5.111605 7.667408-40.892844 33.225436-79.229885 66.450871-120.122729 97.120504-10.223211 7.667408-17.890619 15.334816-30.669632 20.446422-5.111605 2.555803-12.779014 2.555803-20.446422-2.555803-5.111605-5.111605-7.667408-10.223211-7.667408-17.890619V723.292173H174.634039c-12.779014 0-28.11383 0-40.892843-2.555802-28.11383-7.667408-46.004449-35.781238-48.560252-63.895069V332.254355c0-25.558027 12.779014-51.116055 35.781238-61.339265 10.223211-5.111605 23.002225-7.667408 33.225435-7.667409h71.562477V23.002225c7.667408-7.667408 10.223211-15.334816 15.334816-17.89062M172.078237 334.810158c-5.111605 2.555803-10.223211 7.667408-10.223211 15.334816v291.361512c0 7.667408 7.667408 15.334816 15.334816 15.334816H230.861699V334.810158H179.745645c0-2.555803-2.555803-2.555803-7.667408 0m132.901742-2.555803v322.031145H358.651836c7.667408 0 15.334816-7.667408 15.334816-15.334817V347.589172c0-7.667408-7.667408-15.334816-15.334816-15.334817h-53.671857z m140.56915-150.792361c0-7.667408 7.667408-15.334816 17.890619-15.334816h398.705226c5.111605 0 12.779014 0 17.89062 2.555802 5.111605 2.555803 7.667408 7.667408 7.667408 15.334817v38.337041c0 7.667408-7.667408 15.334816-15.334817 15.334816h-204.464218v692.622541c0 5.111605-2.555803 12.779014-7.667408 15.334816h-51.116055c-7.667408 0-15.334816-7.667408-15.334817-15.334816V237.689654H460.883945c-7.667408 0-15.334816-7.667408-15.334816-15.334816V181.461994z" fill="#EE7800" p-id="2806"></path><path d="M790.582498 431.930662c5.111605-2.555803 12.779014 0 17.890619 5.111605 35.781238 28.11383 71.562477 56.22766 107.343715 86.897293 7.667408 5.111605 12.779014 10.223211 15.334816 17.890619 2.555803 10.223211 0 20.446422-5.111605 28.11383-2.555803 5.111605-10.223211 10.223211-15.334817 15.334817l-92.008898 76.674082c-5.111605 5.111605-10.223211 10.223211-17.890619 12.779014-5.111605 2.555803-10.223211 2.555803-15.334817 0-5.111605-2.555803-5.111605-10.223211-5.111605-15.334817v-201.908416c0-5.111605 0-12.779014 2.555803-17.890619 0-5.111605 2.555803-7.667408 7.667408-7.667408z" fill="#EE7800" p-id="2807"></path></svg>