<?xml version="1.0" standalone="no"?><!DOCTYPE svg PUBLIC "-//W3C//DTD SVG 1.1//EN" "http://www.w3.org/Graphics/SVG/1.1/DTD/svg11.dtd"><svg t="1548215997394" class="icon" style="" viewBox="0 0 1024 1024" version="1.1" xmlns="http://www.w3.org/2000/svg" p-id="7919" xmlns:xlink="http://www.w3.org/1999/xlink" width="128" height="128"><defs><style type="text/css"></style></defs><path d="M29.179 12.325h964.61v108.673H29.179z" fill="#ff7170" p-id="7920"></path><path d="M909.896 659.07V234.323H113.008v424.685h796.889v0.062zM228.625 342.928h566.932v207.666H228.625V342.928z m0 0M737.524 903.936c34.715-53.125 67.461-114.656 97.714-184.537l-115.865-42.17c-30.195 82.746-65.23 158.426-105.17 226.773H412.398c-33.441-88.48-71.217-164.094-113.513-226.773l-106.637 42.17c44.017 65.992 79.5 127.398 106.637 184.537H1.851v107.463h1019.203V903.936h-283.53z m0 0" fill="#ff7170" p-id="7921"></path></svg>